<svg xmlns="http://www.w3.org/2000/svg" viewBox="0 0 32 32" width="32" height="32">
  <path fill="#181717" d="M16 .396C7.163.396 0 7.559 0 16.396c0 7.064 4.584 13.046 10.937 15.153.8.146 1.093-.347 1.093-.771 0-.381-.014-1.389-.022-2.725-4.451.967-5.391-2.147-5.391-2.147-.728-1.847-1.777-2.34-1.777-2.34-1.452-.992.11-.972.11-.972 1.605.113 2.451 1.65 2.451 1.65 1.428 2.448 3.746 1.741 4.66 1.332.144-1.035.559-1.741 1.017-2.142-3.555-.405-7.288-1.777-7.288-7.91 0-1.747.623-3.176 1.647-4.294-.165-.405-.714-2.037.156-4.246 0 0 1.342-.43 4.4 1.641 1.274-.354 2.64-.53 4.002-.537 1.36.006 2.728.183 4.004.537 3.054-2.071 4.393-1.641 4.393-1.641.874 2.209.325 3.841.16 4.246 1.025 1.118 1.645 2.547 1.645 4.294 0 6.145-3.738 7.501-7.299 7.899.573.492 1.083 1.463 1.083 2.949 0 2.131-.02 3.849-.02 4.371 0 .427.288.922 1.1.765C27.42 29.433 32 23.456 32 16.396 32 7.559 24.837.396 16 .396z"/>
</svg>
